<svg width="512" height="512" viewBox="0 0 512 512" fill="none" xmlns="http://www.w3.org/2000/svg">
<rect width="512.002" height="512.002" rx="53.3336" fill="#0F172A"/>
<g clip-path="url(#clip0_1209_376)">
<path d="M434.5 145.448V176.987H46.0229V145.448H434.5Z" fill="white"/>
<path d="M466.041 334.477L434.501 334.477L434.501 176.987L466.041 176.987L466.041 334.477Z" fill="white"/>
<path d="M193.018 366.017V334.478H434.501V366.017L193.018 366.017Z" fill="white"/>
<path d="M182.519 460.513V428.974H340.008V460.513H182.519Z" fill="white"/>
<path d="M434.5 145.492C451.896 145.492 465.998 159.594 465.998 176.99C465.998 194.381 451.904 208.48 434.514 208.487V176.985H403.002C403.005 159.592 417.106 145.492 434.5 145.492Z" fill="white"/>
<path d="M434.514 176.985H403.002C403.005 159.592 417.106 145.492 434.5 145.492C451.896 145.492 465.998 159.594 465.998 176.99C465.998 194.381 451.904 208.48 434.514 208.487V176.985ZM445.027 195.145C451.28 191.512 455.485 184.743 455.485 176.99C455.485 165.582 446.381 156.299 435.042 156.012L434.5 156.005C426.744 156.005 419.97 160.214 416.338 166.473H445.027V195.145Z" fill="white"/>
<path d="M466 334.478C466 351.874 451.898 365.976 434.502 365.976C417.106 365.976 403.004 351.874 403.004 334.478L434.489 334.478L434.489 302.98C434.493 302.98 434.498 302.98 434.502 302.98C451.898 302.98 466 317.083 466 334.478Z" fill="white"/>
<path d="M434.502 355.464C446.092 355.464 455.487 346.068 455.487 334.478C455.487 326.714 451.27 319.935 445.002 316.305L445.002 344.991L416.337 344.991C419.883 351.106 426.428 355.266 433.96 355.457L434.502 355.464ZM434.502 365.976C417.106 365.976 403.004 351.874 403.004 334.478L434.489 334.478L434.489 302.98C434.493 302.98 434.498 302.98 434.502 302.98C451.898 302.98 466 317.083 466 334.478C466 351.874 451.898 365.976 434.502 365.976Z" fill="white"/>
<path d="M371.5 428.973C371.5 446.368 357.398 460.471 340.002 460.471C322.607 460.471 308.505 446.368 308.505 428.973L308.506 428.97L340.014 428.97L340.014 397.475C357.405 397.481 371.5 411.581 371.5 428.973Z" fill="white"/>
<path d="M340.014 428.97L340.014 397.475C357.405 397.481 371.5 411.581 371.5 428.973C371.5 446.368 357.398 460.471 340.002 460.471L339.19 460.46C322.17 460.029 308.505 446.097 308.505 428.973L308.506 428.97L340.014 428.97ZM321.836 439.482C325.383 445.599 331.929 449.76 339.461 449.951L340.002 449.958C351.411 449.958 360.693 440.854 360.981 429.515L360.988 428.973C360.988 421.219 356.781 414.447 350.527 410.814L350.527 439.482L321.836 439.482Z" fill="white"/>
<path d="M151 82.5091C151 65.1136 165.102 51.012 182.498 51.012C199.892 51.0121 213.993 65.112 213.995 82.5062L182.518 82.5062L182.518 114.007C182.511 114.007 182.504 114.007 182.498 114.007C165.102 114.007 151 99.9049 151 82.5091Z" fill="white"/>
<path d="M182.498 61.5247C171.089 61.5247 161.806 70.629 161.519 81.9681L161.512 82.5091C161.512 90.2766 165.733 97.0584 172.005 100.687L172.005 71.9935L200.659 71.9935C197.112 65.881 190.569 61.7225 183.04 61.5316L182.498 61.5247ZM182.498 51.012C199.892 51.0121 213.993 65.112 213.995 82.5062L182.518 82.5062L182.518 114.007C182.511 114.007 182.504 114.007 182.498 114.007C165.102 114.007 151 99.9049 151 82.5091C151 65.1136 165.102 51.012 182.498 51.012Z" fill="white"/>
<path d="M339.981 51.0001C357.377 51.0002 371.479 65.1017 371.479 82.4972C371.479 99.8929 357.377 113.995 339.981 113.995C339.977 113.995 339.972 113.994 339.967 113.994V82.4962H308.483C308.484 65.1011 322.586 51.0001 339.981 51.0001Z" fill="white"/>
<path d="M339.967 82.4962H308.483C308.484 65.1011 322.586 51.0001 339.981 51.0001C357.377 51.0002 371.479 65.1017 371.479 82.4972C371.479 99.8929 357.377 113.995 339.981 113.995C339.977 113.995 339.972 113.994 339.967 113.994V82.4962ZM350.479 100.671C356.749 97.0417 360.967 90.2621 360.967 82.4972C360.967 71.0894 351.863 61.8072 340.523 61.5197L339.981 61.5128C332.223 61.5128 325.449 65.7235 321.817 71.9835H350.479V100.671Z" fill="white"/>
<path d="M182.515 460.469C165.119 460.469 151.017 446.367 151.017 428.971C151.017 411.582 165.108 397.485 182.494 397.474L182.494 428.973L214.013 428.973C214.012 446.368 199.91 460.469 182.515 460.469Z" fill="white"/>
<path d="M182.494 428.973L214.013 428.973C214.012 446.368 199.91 460.469 182.515 460.469C165.119 460.469 151.017 446.367 151.017 428.971C151.017 411.582 165.108 397.485 182.494 397.474L182.494 428.973ZM171.981 410.82C165.732 414.454 161.529 421.221 161.529 428.971C161.529 440.379 170.634 449.662 181.973 449.949L182.515 449.956C190.273 449.956 197.047 445.746 200.679 439.486L171.981 439.486L171.981 410.82Z" fill="white"/>
<path d="M109.054 334.478H77.5151L77.5151 176.989H109.054L109.054 334.478Z" fill="white"/>
<path d="M371.547 428.974L340.008 428.974L340.008 386.977L371.547 386.977L371.547 428.974Z" fill="white"/>
<path d="M45.9995 366.018L45.9995 334.479L150.993 334.479L150.993 366.018L45.9995 366.018Z" fill="white"/>
<path d="M182.532 428.972H150.993V208.488H182.532V428.972Z" fill="white"/>
<path d="M150.972 82.509L182.511 82.509L182.511 145.505L150.972 145.505L150.972 82.509Z" fill="white"/>
<path d="M339.967 82.5081L371.506 82.5081L371.506 124.505L339.967 124.505L339.967 82.5081Z" fill="white"/>
<path d="M340 50.969L340 82.5081L182.511 82.5081L182.511 50.969L340 50.969Z" fill="white"/>
</g>
<defs>
<clipPath id="clip0_1209_376">
<rect width="420" height="420" fill="white" transform="translate(46 46)"/>
</clipPath>
</defs>
</svg>
